<?xml version="1.0" encoding="UTF-8"?>
<svg xmlns="http://www.w3.org/2000/svg" xmlns:xlink="http://www.w3.org/1999/xlink" width="512pt" height="512pt" viewBox="0 0 512 512" version="1.1">
<g id="surface1">
<path style=" stroke:none;fill-rule:nonzero;fill:rgb(0%,71.764706%,37.647059%);fill-opacity:1;" d="M 485.671875 130.550781 C 470.636719 106.097656 286.039062 5.097656 255.984375 5.097656 C 225.933594 5.097656 41.261719 105.84375 26.304688 130.546875 C 11.347656 155.257812 11.269531 356.753906 26.304688 381.457031 C 41.339844 406.160156 225.945312 506.902344 255.984375 506.902344 C 286.019531 506.902344 470.644531 406.035156 485.667969 381.453125 C 500.691406 356.875 500.703125 155 485.671875 130.550781 Z M 318.214844 411.066406 C 314.101562 411.066406 275.765625 376.007812 278.78125 373.144531 C 279.683594 372.292969 285.28125 371.691406 296.992188 371.351562 L 296.992188 370.402344 C 296.992188 348.316406 297.535156 307.375 297.964844 286.746094 C 298.007812 284.765625 297.503906 283.390625 297.503906 281.019531 C 269.632812 281.019531 242.417969 281.019531 214.558594 281.019531 C 214.558594 290.5 214.382812 300.703125 214.59375 310.753906 C 214.871094 324.023438 215.277344 339.1875 215.976562 352.445312 C 216.210938 356.894531 214.339844 358.289062 210.015625 358.269531 C 199.5 358.242188 188.976562 358.160156 178.453125 358.1875 C 174.199219 358.199219 172.367188 356.691406 172.496094 352.203125 C 173.296875 324.925781 174.140625 295.402344 174.109375 268.117188 C 174.074219 235.480469 173.175781 176.398438 172.339844 143.765625 L 172.339844 140.660156 C 162.300781 140.316406 155.335938 139.714844 154.425781 138.851562 C 151.398438 135.992188 190.273438 100.933594 194.367188 100.933594 C 198.472656 100.933594 237.097656 136.003906 234.082031 138.851562 C 233.175781 139.707031 225.882812 140.308594 216.679688 140.652344 L 216.679688 143.753906 C 214.171875 168.988281 214.570312 221.757812 213.949219 247.042969 C 242.160156 247.042969 269.382812 247.042969 297.238281 247.042969 C 297.238281 236.769531 297.375 227.28125 297.210938 217.777344 C 296.925781 201 296.566406 181.835938 295.992188 165.0625 C 295.882812 161.742188 296.976562 159.996094 300.363281 159.96875 C 311.851562 159.894531 323.347656 159.84375 334.84375 159.914062 C 338.4375 159.929688 339.589844 161.601562 339.511719 165.191406 C 338.753906 202.800781 337.601562 242.621094 337.480469 280.238281 C 337.40625 302.878906 337.988281 345.988281 338.824219 369.980469 L 338.824219 371.339844 C 348.027344 371.679688 356.273438 372.285156 357.183594 373.144531 C 360.199219 376.007812 322.320312 411.066406 318.214844 411.066406 Z M 318.214844 411.066406 "/>
</g>
</svg>
